<svg width="120" height="38" viewBox="0 0 120 38" fill="none" xmlns="http://www.w3.org/2000/svg">
<g filter="url(#filter0_d)">
<path d="M42.6223 11.58C42.6223 11.4467 42.649 11.3467 42.7023 11.28C42.769 11.2 42.8556 11.16 42.9623 11.16H46.3223C46.549 11.16 46.6623 11.2867 46.6623 11.54V22.8C46.6623 22.8934 46.6756 22.96 46.7023 23C46.7423 23.04 46.8023 23.06 46.8823 23.06H53.0823C53.3623 23.06 53.5023 23.1734 53.5023 23.4V25.6C53.5023 25.72 53.4623 25.82 53.3823 25.9C53.3023 25.9667 53.189 26 53.0423 26H43.1023C42.9156 26 42.789 25.9667 42.7223 25.9C42.6556 25.82 42.6223 25.7 42.6223 25.54V11.58Z" fill="#242424"/>
<path d="M65.1472 16.2C63.7205 16.2 62.4738 15.8934 61.4072 15.28C60.3538 14.6667 59.5405 13.7934 58.9672 12.66C58.3938 11.5134 58.1072 10.1667 58.1072 8.62002C58.1072 7.07336 58.3938 5.72669 58.9672 4.58002C59.5538 3.42002 60.3738 2.52669 61.4272 1.90002C62.4938 1.27336 63.7338 0.960022 65.1472 0.960022C66.5472 0.960022 67.7738 1.27336 68.8272 1.90002C69.8938 2.52669 70.7138 3.42002 71.2872 4.58002C71.8738 5.72669 72.1672 7.07336 72.1672 8.62002C72.1672 10.1534 71.8805 11.4934 71.3072 12.64C70.7338 13.7734 69.9138 14.6534 68.8472 15.28C67.7938 15.8934 66.5605 16.2 65.1472 16.2ZM65.1672 13.4C66.1405 13.4 66.8405 13.0334 67.2672 12.3C67.7072 11.5667 67.9272 10.36 67.9272 8.68002C67.9272 6.94669 67.7005 5.69336 67.2472 4.92002C66.8072 4.13336 66.1072 3.74002 65.1472 3.74002C64.1738 3.74002 63.4605 4.13336 63.0072 4.92002C62.5672 5.69336 62.3472 6.94669 62.3472 8.68002C62.3472 10.36 62.5672 11.5667 63.0072 12.3C63.4472 13.0334 64.1672 13.4 65.1672 13.4Z" fill="#242424"/>
<path d="M86.994 26.2C85.634 26.2 84.434 25.8867 83.394 25.26C82.3674 24.62 81.5674 23.7334 80.994 22.6C80.434 21.4534 80.154 20.1334 80.154 18.64C80.154 17.1067 80.4474 15.76 81.034 14.6C81.634 13.44 82.4674 12.5467 83.534 11.92C84.6007 11.28 85.8274 10.96 87.214 10.96C88.3207 10.96 89.314 11.1667 90.194 11.58C91.074 11.98 91.7874 12.5134 92.334 13.18C92.8807 13.8334 93.234 14.5267 93.394 15.26L93.434 15.58C93.434 15.7 93.4074 15.78 93.354 15.82C93.314 15.86 93.2407 15.8867 93.134 15.9L90.094 16.36C89.9607 16.36 89.874 16.34 89.834 16.3C89.794 16.2467 89.754 16.1467 89.714 16C89.6074 15.3467 89.334 14.8067 88.894 14.38C88.454 13.9534 87.8674 13.74 87.134 13.74C86.2274 13.74 85.5407 14.1134 85.074 14.86C84.6074 15.6067 84.374 16.8267 84.374 18.52C84.374 20.2934 84.6207 21.5534 85.114 22.3C85.6074 23.0334 86.3274 23.4 87.274 23.4C87.9407 23.4 88.4807 23.24 88.894 22.92C89.3074 22.5867 89.6007 22.14 89.774 21.58L89.814 21.2C89.8407 21.12 89.854 21.0667 89.854 21.04C89.854 20.9334 89.7807 20.88 89.634 20.88H87.494C87.3607 20.88 87.2674 20.8534 87.214 20.8C87.1607 20.7467 87.134 20.64 87.134 20.48V18.76C87.134 18.56 87.2607 18.46 87.514 18.46L92.994 18.5C93.2074 18.5 93.3674 18.5534 93.474 18.66C93.594 18.7534 93.654 18.88 93.654 19.04V25.68C93.654 25.7734 93.6207 25.8534 93.554 25.92C93.5007 25.9734 93.4274 26 93.334 26H92.634C92.3807 26 92.1874 25.88 92.054 25.64L91.354 24.36C91.3274 24.3067 91.294 24.2867 91.254 24.3C91.2274 24.3 91.194 24.3267 91.154 24.38C90.6474 24.9267 90.0874 25.3667 89.474 25.7C88.8607 26.0334 88.034 26.2 86.994 26.2Z" fill="#242424"/>
<path d="M108.831 16.2C107.404 16.2 106.157 15.8934 105.091 15.28C104.037 14.6667 103.224 13.7934 102.651 12.66C102.077 11.5134 101.791 10.1667 101.791 8.62002C101.791 7.07336 102.077 5.72669 102.651 4.58002C103.237 3.42002 104.057 2.52669 105.111 1.90002C106.177 1.27336 107.417 0.960022 108.831 0.960022C110.231 0.960022 111.457 1.27336 112.511 1.90002C113.577 2.52669 114.397 3.42002 114.971 4.58002C115.557 5.72669 115.851 7.07336 115.851 8.62002C115.851 10.1534 115.564 11.4934 114.991 12.64C114.417 13.7734 113.597 14.6534 112.531 15.28C111.477 15.8934 110.244 16.2 108.831 16.2ZM108.851 13.4C109.824 13.4 110.524 13.0334 110.951 12.3C111.391 11.5667 111.611 10.36 111.611 8.68002C111.611 6.94669 111.384 5.69336 110.931 4.92002C110.491 4.13336 109.791 3.74002 108.831 3.74002C107.857 3.74002 107.144 4.13336 106.691 4.92002C106.251 5.69336 106.031 6.94669 106.031 8.68002C106.031 10.36 106.251 11.5667 106.691 12.3C107.131 13.0334 107.851 13.4 108.851 13.4Z" fill="#242424"/>
<path d="M16.9253 0C20.1277 0 23.1989 1.27215 25.4634 3.5366C27.7278 5.80104 29 8.87229 29 12.0747C29 21.3083 21.1869 29.1213 16.9253 29.1213C12.6636 29.1213 4.85059 21.3083 4.85059 12.0747C4.85059 8.87229 6.12274 5.80104 8.38718 3.5366C10.6516 1.27215 13.7229 0 16.9253 0ZM16.9253 2.8411C14.4764 2.8411 12.1278 3.81393 10.3961 5.54556C8.66451 7.27719 7.69169 9.62579 7.69169 12.0747C7.69169 18.8848 13.6083 26.2802 16.9253 26.2802C20.2423 26.2802 26.1589 18.8848 26.1589 12.0747C26.1589 9.62579 25.186 7.27719 23.4544 5.54556C21.7228 3.81393 19.3742 2.8411 16.9253 2.8411ZM24.7383 12.785C24.9656 12.785 25.1915 12.7963 25.4131 12.8205C25.5138 13.7686 25.4011 14.7272 25.0833 15.6261C24.7655 16.525 24.2507 17.3415 23.5765 18.0156C22.9023 18.6898 22.0859 19.2046 21.187 19.5224C20.2881 19.8402 19.3294 19.9529 18.3813 19.8522C18.2867 18.9608 18.3806 18.0595 18.657 17.2067C18.9333 16.354 19.386 15.5689 19.9854 14.9024C20.5849 14.236 21.3179 13.703 22.1367 13.3382C22.9555 12.9734 23.8419 12.7849 24.7383 12.785ZM9.11224 12.785C10.0087 12.7849 10.895 12.9734 11.7139 13.3382C12.5327 13.703 13.2656 14.236 13.8651 14.9024C14.4646 15.5689 14.9172 16.354 15.1936 17.2067C15.4699 18.0595 15.5638 18.9608 15.4692 19.8522C14.5211 19.9529 13.5625 19.8402 12.6636 19.5224C11.7647 19.2046 10.9482 18.6898 10.2741 18.0156C9.59988 17.3415 9.08505 16.525 8.76727 15.6261C8.44949 14.7272 8.33681 13.7686 8.43748 12.8205C8.65767 12.7963 8.88495 12.785 9.11224 12.785Z" fill="url(#paint0_linear)"/>
</g>
<defs>
<filter id="filter0_d" x="0" y="0" width="122" height="38" filterUnits="userSpaceOnUse" color-interpolation-filters="sRGB">
<feFlood flood-opacity="0" result="BackgroundImageFix"/>
<feColorMatrix in="SourceAlpha" type="matrix" values="0 0 0 0 0 0 0 0 0 0 0 0 0 0 0 0 0 0 127 0"/>
<feOffset dy="4"/>
<feGaussianBlur stdDeviation="2"/>
<feColorMatrix type="matrix" values="0 0 0 0 0 0 0 0 0 0 0 0 0 0 0 0 0 0 0.25 0"/>
<feBlend mode="normal" in2="BackgroundImageFix" result="effect1_dropShadow"/>
<feBlend mode="normal" in="SourceGraphic" in2="effect1_dropShadow" result="shape"/>
</filter>
<linearGradient id="paint0_linear" x1="8.40197" y1="-2.85205e-07" x2="29" y2="29.1213" gradientUnits="userSpaceOnUse">
<stop stop-color="#2EC73D"/>
<stop offset="0.515625" stop-color="#7C64C2"/>
<stop offset="1" stop-color="#B31DB6"/>
</linearGradient>
</defs>
</svg>
